<svg width="28" height="28" viewBox="0 0 28 28" fill="none" xmlns="http://www.w3.org/2000/svg">
<g clip-path="url(#clip0_466_57)">
<path d="M14 28C21.732 28 28 21.732 28 14C28 6.26801 21.732 0 14 0C6.26801 0 0 6.26801 0 14C0 21.732 6.26801 28 14 28Z" fill="#E6EDF4"/>
<path d="M14.2454 12.7731C15.8719 12.7731 17.1903 11.4546 17.1903 9.82819C17.1903 8.20177 15.8719 6.8833 14.2454 6.8833C12.619 6.8833 11.3005 8.20177 11.3005 9.82819C11.3005 11.4546 12.619 12.7731 14.2454 12.7731Z" fill="#ADB9C5"/>
<path d="M19.1532 18.908C19.1532 21.7542 16.846 21.1166 13.9998 21.1166C11.1535 21.1166 8.84619 21.7542 8.84619 18.908C8.84619 16.0617 11.1535 13.7544 13.9998 13.7544C16.846 13.7544 19.1532 16.0617 19.1532 18.908Z" fill="#ADB9C5"/>
</g>
<defs>
<clipPath id="clip0_466_57">
<rect width="28" height="28" fill="white"/>
</clipPath>
</defs>
</svg>
