<svg width="24" height="24" viewBox="0 0 24 24" fill="none" xmlns="http://www.w3.org/2000/svg">
<path fill-rule="evenodd" clip-rule="evenodd" d="M3.83398 2.66683C3.18965 2.66683 2.66732 3.18916 2.66732 3.8335V20.1668C2.66732 20.8112 3.18965 21.3335 3.83398 21.3335H20.1673C20.8117 21.3335 21.334 20.8112 21.334 20.1668V3.8335C21.334 3.18916 20.8117 2.66683 20.1673 2.66683H3.83398ZM0.333984 3.8335C0.333984 1.9005 1.90099 0.333496 3.83398 0.333496H20.1673C22.1003 0.333496 23.6673 1.9005 23.6673 3.8335V20.1668C23.6673 22.0998 22.1003 23.6668 20.1673 23.6668H3.83398C1.90099 23.6668 0.333984 22.0998 0.333984 20.1668V3.8335Z" fill="#666D7A"/>
</svg>
