<svg width="140" height="20" viewBox="0 0 140 20" fill="none" xmlns="http://www.w3.org/2000/svg">
<g clip-path="url(#clip0_177_63)">
<path d="M135.841 11.2327H126.346C126.358 12.3509 126.584 13.3323 127.013 14.1859C127.445 15.0394 128.021 15.6788 128.735 16.1071C129.452 16.5442 130.246 16.7584 131.107 16.7584C131.688 16.7584 132.217 16.69 132.696 16.5502C133.181 16.4164 133.643 16.1993 134.092 15.9048C134.548 15.6104 134.959 15.2981 135.335 14.9591C135.717 14.6201 136.208 14.168 136.816 13.5911C137.066 13.3769 137.416 13.2669 137.877 13.2669C138.374 13.2669 138.782 13.4067 139.091 13.6833C139.393 13.9539 139.552 14.3465 139.552 14.8491C139.552 15.2922 139.376 15.8067 139.038 16.4015C138.691 16.9903 138.177 17.5613 137.477 18.1026C136.787 18.6498 135.917 19.1019 134.868 19.4587C133.819 19.8216 132.611 20 131.254 20C128.136 20 125.714 19.0989 123.986 17.2996C122.259 15.5004 121.395 13.0617 121.395 9.98067C121.395 8.53234 121.606 7.18214 122.032 5.942C122.455 4.70186 123.081 3.64014 123.895 2.75094C124.715 1.86766 125.72 1.18662 126.916 0.713754C128.112 0.240893 129.44 0 130.895 0C132.793 0 134.418 0.40446 135.773 1.21636C137.131 2.02528 138.145 3.07212 138.823 4.35986C139.496 5.64164 139.837 6.95019 139.837 8.28253C139.837 9.51672 139.485 10.3197 138.788 10.6885C138.092 11.0513 137.107 11.2357 135.841 11.2357V11.2327ZM126.346 8.43419H135.144C135.03 6.75687 134.58 5.50484 133.804 4.66913C133.028 3.8394 132.009 3.42304 130.739 3.42304C129.526 3.42304 128.538 3.84535 127.76 4.68699C126.984 5.53458 126.511 6.78067 126.346 8.43123V8.43419Z" fill="#00A2C9"/>
<path d="M105.608 10.3634V16.902C105.608 17.9357 105.375 18.7101 104.906 19.2255C104.437 19.7408 103.816 20 103.052 20C102.305 20 101.702 19.7408 101.239 19.2255C100.776 18.7101 100.543 17.9327 100.543 16.902V9.06761C100.543 7.82545 100.501 6.86624 100.414 6.1841C100.334 5.50193 100.107 4.93595 99.7306 4.49807C99.3544 4.06017 98.7689 3.83974 97.9537 3.83974C96.338 3.83974 95.2778 4.39381 94.767 5.49896C94.2563 6.60113 93.9966 8.18588 93.9966 10.2532V16.902C93.9966 17.9237 93.7637 18.6982 93.3006 19.2195C92.8378 19.7438 92.2285 20 91.4758 20C90.7294 20 90.1201 19.7408 89.6451 19.2195C89.1704 18.6982 88.9285 17.9208 88.9285 16.902V2.8299C88.9285 1.90647 89.1435 1.20048 89.5706 0.720882C89.9947 0.241287 90.5561 0 91.2549 0C91.933 0 92.4944 0.226392 92.9454 0.676198C93.3963 1.126 93.6232 1.7456 93.6232 2.53798V3.00566C94.4744 1.98391 95.3913 1.23324 96.3678 0.753648C97.3413 0.274053 98.4285 0.0327675 99.617 0.0327675C100.863 0.0327675 101.923 0.277031 102.816 0.77152C103.709 1.26303 104.443 2.00774 105.017 3.00267C105.85 1.99285 106.743 1.25112 107.693 0.765564C108.642 0.280012 109.697 0.0327675 110.855 0.0327675C112.205 0.0327675 113.364 0.297884 114.341 0.82514C115.314 1.3524 116.049 2.10903 116.53 3.09504C116.948 3.97974 117.16 5.38277 117.16 7.28925V16.896C117.16 17.9297 116.927 18.7042 116.458 19.2195C115.989 19.7349 115.368 19.994 114.603 19.994C113.857 19.994 113.248 19.7349 112.773 19.2136C112.298 18.6923 112.059 17.9148 112.059 16.896V8.62376C112.059 7.56629 112.014 6.72325 111.922 6.08282C111.829 5.44831 111.59 4.91511 111.187 4.47721C110.793 4.04827 110.189 3.8308 109.38 3.8308C108.726 3.8308 108.111 4.02145 107.525 4.4087C106.946 4.79 106.489 5.30533 106.163 5.95771C105.799 6.78284 105.62 8.25142 105.62 10.3545L105.608 10.3634Z" fill="#00A2C9"/>
<path d="M7.81055 20C4.91262 20 2.88838 19.4304 1.72825 18.2958C0.577674 17.1613 0 15.1699 0 12.3169V7.70224C0 4.83964 0.572902 2.83867 1.72348 1.70416C2.86929 0.569651 4.88876 0 7.77236 0H9.11867C11.859 0 13.8356 0.531354 15.0482 1.58449C16.2608 2.63761 16.891 4.37051 16.9388 6.78316L13.9597 6.80229C13.8976 5.2226 13.5443 4.13595 12.8903 3.54236C12.241 2.9488 10.9758 2.652 9.11867 2.652H7.77236C5.79107 2.652 4.50205 2.98708 3.89095 3.64769C3.27986 4.31786 2.9791 5.8832 2.9791 8.34371V11.6707C2.9791 14.1455 3.2894 15.7204 3.89574 16.3858C4.5116 17.0512 5.80062 17.3815 7.7676 17.3815H9.1139C10.9997 17.3815 12.284 17.0608 12.9476 16.4098C13.6207 15.7635 13.9549 14.5764 13.9549 12.8674V12.5323H16.934V12.9057C16.934 15.4428 16.3372 17.2619 15.1341 18.3533C13.931 19.4447 11.9402 19.9952 9.14255 19.9952H7.801L7.81055 20Z" fill="#090A0D"/>
<path d="M35.1609 14.7751V12.7225C35.1609 11.7943 34.6754 11.1196 33.7145 10.689C32.7535 10.2536 31.2142 10.0383 29.1109 10.0383C27.1842 10.0383 25.8947 10.2775 25.2476 10.7512C24.5954 11.2249 24.2719 12.134 24.2719 13.4785C24.2719 15.0096 24.6152 16.0287 25.3064 16.5407C25.9878 17.0526 27.3654 17.311 29.4295 17.311C31.2828 17.311 32.6997 17.0909 33.6852 16.6555C34.6657 16.2201 35.1559 15.5885 35.1559 14.7751H35.1609ZM35.3078 17.6842C34.8569 18.4976 34.1312 19.0861 33.1459 19.4498C32.1507 19.8182 30.7828 20 29.0276 20C25.9142 20 23.8209 19.5646 22.7619 18.6938C21.703 17.823 21.1735 16.2057 21.1735 13.8325C21.1735 12.4641 21.296 11.3923 21.5412 10.6124C21.7863 9.83733 22.1932 9.21053 22.7619 8.74641C23.2424 8.34928 23.9435 8.07178 24.875 7.90431C25.8064 7.73205 27.1352 7.65072 28.8804 7.65072C30.6797 7.65072 32.0623 7.79427 33.0135 8.08612C33.9695 8.378 34.6852 8.85646 35.1657 9.53588V6.17704C35.1657 4.58853 34.8471 3.55981 34.2245 3.08612C33.5919 2.61723 32.0083 2.38756 29.4785 2.38756C27.6402 2.38756 26.4095 2.57894 25.8064 2.95694C25.2035 3.33014 24.8897 4.03349 24.8652 5.07655H21.9187V4.6268C21.9187 2.96174 22.4678 1.77513 23.5709 1.06699C24.674 0.354072 26.5812 0 29.2776 0C31.3809 0 32.984 0.0861284 34.0823 0.258378C35.1804 0.430627 35.9942 0.708133 36.5238 1.09091C37.1071 1.5311 37.514 2.08134 37.7495 2.73684C37.9897 3.38757 38.1123 4.51195 38.1123 6.10048V19.7273H35.4304L35.3128 17.6747L35.3078 17.6842Z" fill="#090A0D"/>
<path d="M42.3469 13.9507H45.2529V14.391C45.2529 15.5923 45.625 16.4202 46.3598 16.8701C47.0945 17.3199 48.5738 17.5449 50.7974 17.5449C53.2881 17.5449 54.8198 17.3199 55.3969 16.8557C55.9743 16.4011 56.2655 15.5157 56.2655 14.2091C56.2655 12.9409 56.0269 12.089 55.5545 11.6631C55.0822 11.2324 53.9036 10.9739 52.0141 10.8734C51.3126 10.8351 50.3679 10.7968 49.1798 10.7586C46.5793 10.6915 45.0334 10.5049 44.5419 10.2273C43.8072 9.81574 43.2774 9.26058 42.9722 8.56186C42.6572 7.85834 42.4998 6.84853 42.4998 5.53243C42.4998 3.37402 43.0484 1.91433 44.1412 1.1486C45.2291 0.382863 47.6338 0 51.3555 0C54.2424 0 56.1891 0.368508 57.215 1.09117C58.2407 1.81862 58.7562 3.10123 58.7562 4.92463H55.8886V4.74277C55.8886 3.87653 55.5162 3.28308 54.7767 2.95764C54.0276 2.62742 52.5534 2.4647 50.3441 2.4647C48.2017 2.4647 46.8417 2.66092 46.2548 3.05814C45.6631 3.45058 45.3674 4.27853 45.3674 5.53243C45.3674 6.29817 45.4245 6.8246 45.5295 7.13569C45.6441 7.44677 45.8398 7.67648 46.1212 7.83441C46.6986 8.14549 47.9774 8.31778 49.9529 8.37043C50.4538 8.3848 50.845 8.39436 51.1169 8.40872C52.7393 8.47094 54.0086 8.55229 54.9343 8.66236C55.8598 8.76287 56.5136 8.90643 56.9095 9.09788C57.7684 9.49031 58.3793 10.0598 58.7467 10.7968C59.1045 11.5434 59.2857 12.6155 59.2857 14.0225C59.2857 15.4487 59.1093 16.5399 58.7514 17.2816C58.3936 18.0187 57.7588 18.6743 56.8334 19.2439C56.4181 19.5166 55.731 19.7128 54.791 19.8229C53.8414 19.9426 52.5293 20 50.845 20C47.4095 20 45.1336 19.6028 44.0172 18.8083C42.9053 18.0043 42.3517 16.559 42.3517 14.458V13.9411L42.3469 13.9507Z" fill="#090A0D"/>
<path d="M67.9102 8.10241H78.8876V7.34627C78.8876 5.52284 78.5631 4.28333 77.914 3.62766C77.26 2.9768 75.9714 2.65135 74.0481 2.65135H72.7021C70.7833 2.65135 69.509 2.98157 68.8695 3.62766C68.2347 4.28333 67.915 5.52284 67.915 7.34627V8.10241H67.9102ZM72.7402 19.9952C69.8431 19.9952 67.8195 19.4257 66.6595 18.2914C65.5093 17.162 64.9319 15.1663 64.9319 12.314V7.70041C64.9319 4.83369 65.5045 2.838 66.6547 1.70375C67.8002 0.569513 69.8145 0 72.7021 0H74.0481C76.945 0 78.9783 0.569513 80.1333 1.70375C81.2883 2.838 81.8707 4.83369 81.8707 7.70041V10.6437L67.915 10.6628C67.9005 10.8591 67.8957 11.0792 67.8909 11.3137C67.8862 11.553 67.8766 11.888 67.8766 12.3187C67.8766 14.3336 68.1964 15.6784 68.8407 16.358C69.4757 17.0471 70.7643 17.3869 72.7069 17.3869H74.0528C75.7805 17.3869 76.9833 17.1333 77.6609 16.6355C78.334 16.1378 78.7302 15.2668 78.8352 14.0177H81.8324C81.6893 16.133 81.0066 17.6549 79.804 18.593C78.5964 19.5358 76.6921 20 74.0814 20H72.7402V19.9952Z" fill="#090A0D"/>
</g>
<defs>
<clipPath id="clip0_177_63">
<rect width="140" height="20" fill="white"/>
</clipPath>
</defs>
</svg>
