<svg width="25" height="24" viewBox="0 0 25 24" fill="none" xmlns="http://www.w3.org/2000/svg">
<path fill-rule="evenodd" clip-rule="evenodd" d="M3.83398 2.66683C3.52456 2.66683 3.22782 2.78975 3.00903 3.00854C2.79023 3.22733 2.66732 3.52408 2.66732 3.8335V20.1668C2.66732 20.4762 2.79023 20.773 3.00903 20.9918C3.22782 21.2106 3.52457 21.3335 3.83398 21.3335H20.1673C20.4767 21.3335 20.7735 21.2106 20.9923 20.9918C21.2111 20.773 21.334 20.4762 21.334 20.1668V12.0002C21.334 11.3558 21.8563 10.8335 22.5007 10.8335C23.145 10.8335 23.6673 11.3558 23.6673 12.0002V20.1668C23.6673 21.0951 23.2986 21.9853 22.6422 22.6417C21.9858 23.2981 21.0956 23.6668 20.1673 23.6668H3.83398C2.90573 23.6668 2.01549 23.2981 1.35911 22.6417C0.702733 21.9853 0.333984 21.0951 0.333984 20.1668V3.8335C0.333984 2.90524 0.702733 2.015 1.35911 1.35862C2.01549 0.702245 2.90573 0.333496 3.83398 0.333496H16.6673C17.3116 0.333496 17.834 0.855831 17.834 1.50016C17.834 2.1445 17.3116 2.66683 16.6673 2.66683H3.83398ZM22.8424 1.84187C23.298 1.38626 24.0367 1.38626 24.4923 1.84187C24.9479 2.29748 24.9479 3.03618 24.4923 3.49179L12.8256 15.1585C12.37 15.6141 11.6313 15.6141 11.1757 15.1585L7.67569 11.6585C7.22008 11.2028 7.22008 10.4642 7.67569 10.0085C8.1313 9.55293 8.87 9.55293 9.32561 10.0085L12.0007 12.6836L22.8424 1.84187Z" fill="#090A0D"/>
</svg>
