<svg width="28" height="28" viewBox="0 0 28 28" fill="none" xmlns="http://www.w3.org/2000/svg">
<g clip-path="url(#clip0_466_248)">
<path d="M14 17.5C15.933 17.5 17.5 15.933 17.5 14C17.5 12.067 15.933 10.5 14 10.5C12.067 10.5 10.5 12.067 10.5 14C10.5 15.933 12.067 17.5 14 17.5Z" stroke="#090A0D" stroke-width="2" stroke-linecap="round" stroke-linejoin="round"/>
<path d="M22.6334 17.4998C22.4781 17.8517 22.4318 18.2421 22.5004 18.6205C22.569 18.999 22.7495 19.3482 23.0184 19.6232L23.0884 19.6932C23.3054 19.9099 23.4775 20.1672 23.5949 20.4505C23.7123 20.7337 23.7727 21.0374 23.7727 21.344C23.7727 21.6506 23.7123 21.9543 23.5949 22.2375C23.4775 22.5208 23.3054 22.7781 23.0884 22.9948C22.8717 23.2118 22.6144 23.3839 22.3311 23.5013C22.0478 23.6187 21.7442 23.6792 21.4376 23.6792C21.1309 23.6792 20.8273 23.6187 20.5441 23.5013C20.2608 23.3839 20.0035 23.2118 19.7867 22.9948L19.7167 22.9248C19.4418 22.6559 19.0926 22.4755 18.7141 22.4068C18.3356 22.3382 17.9453 22.3845 17.5934 22.5398C17.2483 22.6877 16.9541 22.9333 16.7468 23.2463C16.5395 23.5593 16.4282 23.9261 16.4267 24.3015V24.4998C16.4267 25.1187 16.1809 25.7122 15.7433 26.1498C15.3057 26.5873 14.7123 26.8332 14.0934 26.8332C13.4746 26.8332 12.8811 26.5873 12.4435 26.1498C12.0059 25.7122 11.7601 25.1187 11.7601 24.4998V24.3948C11.751 24.0087 11.6261 23.6342 11.4013 23.32C11.1766 23.0058 10.8626 22.7665 10.5001 22.6332C10.1482 22.4779 9.75786 22.4315 9.37939 22.5002C9.00093 22.5688 8.65171 22.7492 8.37675 23.0182L8.30675 23.0882C8.09004 23.3051 7.8327 23.4772 7.54944 23.5946C7.26618 23.7121 6.96255 23.7725 6.65591 23.7725C6.34928 23.7725 6.04565 23.7121 5.76239 23.5946C5.47912 23.4772 5.22179 23.3051 5.00508 23.0882C4.78814 22.8715 4.61603 22.6141 4.49861 22.3309C4.38119 22.0476 4.32075 21.744 4.32075 21.4373C4.32075 21.1307 4.38119 20.8271 4.49861 20.5438C4.61603 20.2605 4.78814 20.0032 5.00508 19.7865L5.07508 19.7165C5.34404 19.4415 5.52446 19.0923 5.59309 18.7139C5.66171 18.3354 5.61538 17.9451 5.46008 17.5932C5.31219 17.2481 5.06663 16.9538 4.75362 16.7465C4.44062 16.5392 4.07383 16.428 3.69841 16.4265H3.50008C2.88124 16.4265 2.28775 16.1807 1.85017 15.7431C1.41258 15.3055 1.16675 14.712 1.16675 14.0932C1.16675 13.4743 1.41258 12.8808 1.85017 12.4433C2.28775 12.0057 2.88124 11.7598 3.50008 11.7598H3.60508C3.99124 11.7508 4.36575 11.6258 4.67993 11.4011C4.99411 11.1764 5.23342 10.8624 5.36675 10.4998C5.52205 10.148 5.56838 9.75761 5.49975 9.37915C5.43113 9.00069 5.25071 8.65146 4.98175 8.3765L4.91175 8.3065C4.6948 8.0898 4.5227 7.83246 4.40528 7.5492C4.28785 7.26594 4.22741 6.96231 4.22741 6.65567C4.22741 6.34903 4.28785 6.04541 4.40528 5.76214C4.5227 5.47888 4.6948 5.22154 4.91175 5.00484C5.12845 4.78789 5.38579 4.61579 5.66905 4.49836C5.95232 4.38094 6.25595 4.3205 6.56258 4.3205C6.86922 4.3205 7.17285 4.38094 7.45611 4.49836C7.73937 4.61579 7.99671 4.78789 8.21341 5.00484L8.28341 5.07484C8.55837 5.3438 8.9076 5.52422 9.28606 5.59284C9.66452 5.66146 10.0549 5.61514 10.4067 5.45984H10.5001C10.8451 5.31195 11.1394 5.06639 11.3467 4.75338C11.554 4.44037 11.6653 4.07359 11.6667 3.69817V3.49984C11.6667 2.881 11.9126 2.28751 12.3502 1.84992C12.7878 1.41234 13.3812 1.1665 14.0001 1.1665C14.6189 1.1665 15.2124 1.41234 15.65 1.84992C16.0876 2.28751 16.3334 2.881 16.3334 3.49984V3.60484C16.3349 3.98025 16.4462 4.34704 16.6534 4.66005C16.8607 4.97305 17.155 5.21861 17.5001 5.3665C17.852 5.5218 18.2423 5.56813 18.6208 5.49951C18.9992 5.43089 19.3485 5.25046 19.6234 4.9815L19.6934 4.9115C19.9101 4.69456 20.1675 4.52245 20.4507 4.40503C20.734 4.28761 21.0376 4.22717 21.3442 4.22717C21.6509 4.22717 21.9545 4.28761 22.2378 4.40503C22.521 4.52245 22.7784 4.69456 22.9951 4.9115C23.212 5.12821 23.3841 5.38555 23.5016 5.66881C23.619 5.95207 23.6794 6.2557 23.6794 6.56234C23.6794 6.86897 23.619 7.1726 23.5016 7.45586C23.3841 7.73913 23.212 7.99647 22.9951 8.21317L22.9251 8.28317C22.6561 8.55813 22.4757 8.90736 22.4071 9.28582C22.3385 9.66428 22.3848 10.0546 22.5401 10.4065V10.4998C22.688 10.8449 22.9335 11.1392 23.2465 11.3465C23.5595 11.5538 23.9263 11.665 24.3017 11.6665H24.5001C25.1189 11.6665 25.7124 11.9123 26.15 12.3499C26.5876 12.7875 26.8334 13.381 26.8334 13.9998C26.8334 14.6187 26.5876 15.2122 26.15 15.6498C25.7124 16.0873 25.1189 16.3332 24.5001 16.3332H24.3951C24.0197 16.3347 23.6529 16.4459 23.3399 16.6532C23.0269 16.8605 22.7813 17.1548 22.6334 17.4998Z" stroke="#090A0D" stroke-width="2" stroke-linecap="round" stroke-linejoin="round"/>
</g>
<defs>
<clipPath id="clip0_466_248">
<rect width="28" height="28" fill="white"/>
</clipPath>
</defs>
</svg>
