<svg width="56" height="15" viewBox="0 0 56 15" fill="none" xmlns="http://www.w3.org/2000/svg">
<path d="M0.5 14.7443V0.198864H3.57528V12.2088H9.81108V14.7443H0.5Z" fill="#090A0D"/>
<path d="M24.6477 7.47159C24.6477 9.05777 24.3471 10.4072 23.7457 11.5199C23.1491 12.6326 22.3348 13.4825 21.3026 14.0696C20.2751 14.652 19.1198 14.9432 17.8366 14.9432C16.544 14.9432 15.384 14.6496 14.3565 14.0625C13.3291 13.4754 12.517 12.6255 11.9205 11.5128C11.3239 10.4001 11.0256 9.05303 11.0256 7.47159C11.0256 5.88542 11.3239 4.53599 11.9205 3.4233C12.517 2.31061 13.3291 1.46307 14.3565 0.880682C15.384 0.293561 16.544 0 17.8366 0C19.1198 0 20.2751 0.293561 21.3026 0.880682C22.3348 1.46307 23.1491 2.31061 23.7457 3.4233C24.3471 4.53599 24.6477 5.88542 24.6477 7.47159ZM21.5298 7.47159C21.5298 6.44413 21.3759 5.57765 21.0682 4.87216C20.7652 4.16667 20.3366 3.63163 19.7827 3.26705C19.2287 2.90246 18.58 2.72017 17.8366 2.72017C17.0933 2.72017 16.4446 2.90246 15.8906 3.26705C15.3366 3.63163 14.9058 4.16667 14.598 4.87216C14.295 5.57765 14.1435 6.44413 14.1435 7.47159C14.1435 8.49905 14.295 9.36553 14.598 10.071C14.9058 10.7765 15.3366 11.3116 15.8906 11.6761C16.4446 12.0407 17.0933 12.223 17.8366 12.223C18.58 12.223 19.2287 12.0407 19.7827 11.6761C20.3366 11.3116 20.7652 10.7765 21.0682 10.071C21.3759 9.36553 21.5298 8.49905 21.5298 7.47159Z" fill="#090A0D"/>
<path d="M36.5707 4.90057C36.4712 4.55492 36.3316 4.24953 36.1516 3.98438C35.9717 3.71449 35.7515 3.48722 35.4911 3.30256C35.2354 3.11316 34.9419 2.96875 34.6104 2.86932C34.2837 2.76989 33.9215 2.72017 33.5238 2.72017C32.7804 2.72017 32.127 2.90483 31.5636 3.27415C31.0049 3.64347 30.5692 4.18087 30.2567 4.88636C29.9442 5.58712 29.788 6.44413 29.788 7.45739C29.788 8.47064 29.9419 9.33239 30.2496 10.0426C30.5574 10.7528 30.993 11.295 31.5565 11.669C32.1199 12.0384 32.7852 12.223 33.5522 12.223C34.2482 12.223 34.8424 12.0999 35.3349 11.8537C35.832 11.6027 36.2108 11.25 36.4712 10.7955C36.7364 10.3409 36.869 9.8035 36.869 9.18324L37.494 9.27557H33.744V6.96023H39.8306V8.79261C39.8306 10.071 39.5607 11.1695 39.021 12.0881C38.4812 13.0019 37.7378 13.7074 36.7908 14.2045C35.8439 14.697 34.7596 14.9432 33.538 14.9432C32.1744 14.9432 30.9764 14.6425 29.9442 14.0412C28.912 13.4351 28.1071 12.5758 27.5295 11.4631C26.9566 10.3456 26.6701 9.01989 26.6701 7.4858C26.6701 6.30682 26.8406 5.25568 27.1815 4.33239C27.5271 3.40436 28.0101 2.61837 28.6303 1.97443C29.2506 1.33049 29.9727 0.840435 30.7965 0.504261C31.6204 0.168087 32.5129 0 33.4741 0C34.2979 0 35.065 0.120739 35.7752 0.362216C36.4854 0.598959 37.1152 0.935133 37.6644 1.37074C38.2184 1.80634 38.6706 2.32481 39.021 2.92614C39.3713 3.52273 39.5962 4.18087 39.6957 4.90057H36.5707Z" fill="#090A0D"/>
<path d="M55.5071 7.47159C55.5071 9.05777 55.2064 10.4072 54.6051 11.5199C54.0085 12.6326 53.1941 13.4825 52.1619 14.0696C51.1345 14.652 49.9792 14.9432 48.696 14.9432C47.4034 14.9432 46.2434 14.6496 45.2159 14.0625C44.1884 13.4754 43.3764 12.6255 42.7798 11.5128C42.1832 10.4001 41.8849 9.05303 41.8849 7.47159C41.8849 5.88542 42.1832 4.53599 42.7798 3.4233C43.3764 2.31061 44.1884 1.46307 45.2159 0.880682C46.2434 0.293561 47.4034 0 48.696 0C49.9792 0 51.1345 0.293561 52.1619 0.880682C53.1941 1.46307 54.0085 2.31061 54.6051 3.4233C55.2064 4.53599 55.5071 5.88542 55.5071 7.47159ZM52.3892 7.47159C52.3892 6.44413 52.2353 5.57765 51.9276 4.87216C51.6245 4.16667 51.196 3.63163 50.642 3.26705C50.0881 2.90246 49.4394 2.72017 48.696 2.72017C47.9527 2.72017 47.304 2.90246 46.75 3.26705C46.196 3.63163 45.7652 4.16667 45.4574 4.87216C45.1544 5.57765 45.0028 6.44413 45.0028 7.47159C45.0028 8.49905 45.1544 9.36553 45.4574 10.071C45.7652 10.7765 46.196 11.3116 46.75 11.6761C47.304 12.0407 47.9527 12.223 48.696 12.223C49.4394 12.223 50.0881 12.0407 50.642 11.6761C51.196 11.3116 51.6245 10.7765 51.9276 10.071C52.2353 9.36553 52.3892 8.49905 52.3892 7.47159Z" fill="#090A0D"/>
</svg>
